<svg width="36" height="35" xmlns="http://www.w3.org/2000/svg">
 <!-- Generator: Sketch 49.3 (51167) - http://www.bohemiancoding.com/sketch -->
 <title>Star</title>
 <desc>Created with Sketch.</desc>

 <g>
  <title>Layer 1</title>
  <g fill-rule="evenodd" fill="none" id="Symbols">
   <g stroke-width="2" stroke="#303030" fill="#FFFFFF" id="Profile-nav">
    <g id="Group-2">
     <polygon points="18.08230447024107,27.628475680947304 8.677740566432476,32.75308658182621 10.473852626979351,21.898985400795937 2.865399830043316,14.212067142128944 13.380022518336773,12.628475680947304 18.08230447024107,2.75308658182621 22.784586422145367,12.628475680947304 33.29920815676451,14.212067142128944 25.69075631350279,21.898985400795937 27.486868374049664,32.75308658182621 " id="Star"/>
    </g>
   </g>
  </g>
  <path id="svg_1" d="m22.88764,12.2191" opacity="NaN" stroke="#000" fill="#fff"/>
  <path id="svg_3" d="m18.12346,27.95267" opacity="NaN" fill-opacity="null" stroke-opacity="null" stroke-dasharray="null" stroke-width="null" stroke="#ffffff" fill="#fff"/>
  <path id="svg_7" d="m55.40738,26.96501l-9.39918,4.5576l1.72839,-10.28806l-7.32509,-7.65431l9.87653,-1.56379l5.10288,-9.87653l0.01647,24.82509z" opacity="undefined" stroke-dasharray="null" stroke-width="null" fill="#ffbf00"/>
  <path stroke="null" id="svg_8" d="m-39.25512,11.12969l11.1604,0l3.44865,-9.99716l3.44865,9.99716l11.16039,0l-9.02893,6.17851l3.44883,9.99716l-9.02894,-6.17868l-9.02894,6.17868l3.44883,-9.99716l-9.02894,-6.17851z" opacity="undefined" fill-opacity="null" stroke-opacity="null" stroke-dasharray="null" stroke-width="null" fill="#ffbf00"/>
  <path id="svg_9" d="m18.14124,26.48304l-8.14126,4.36437l1.58192,-9.32202l-6.49716,-6.55366l8.98304,-1.46892l4.06779,-8.47456l0.00568,21.45479z" opacity="undefined" fill-opacity="null" stroke-opacity="null" stroke-dasharray="null" stroke-width="null" stroke="null" fill="#ffbf00"/>
 </g>
</svg>